# xmcd
#
# Track frame offsets: 
#        183
#        16335
#        33760
#        59848
#
# Disc length: 1181 seconds
#
# Revision: 0
# Processed by: cddbd v1.5.2PL0 Copyright (c) Steve Scherf et al.
# Submitted via: ExactAudioCopy v1.4
#
DISCID=2c049b04
DTITLE=Deep Fried - Chanell Girl
DYEAR=1994
DGENRE=
TTITLE0=Chanell Girl (Build A Blunt Mix)
TTITLE1=Chanell Girl (Melody Mix Radio Edit)
TTITLE2=Chanell Girl (TBM 1 Jack 2 Rio Remix)
TTITLE3=Chanell Girl (Melody Mix Extended Version)
EXTD=
EXTT0=
EXTT1=
EXTT2=
EXTT3=
PLAYORDER=
